<svg width="274" height="58" viewBox="0 0 274 58" fill="none" xmlns="http://www.w3.org/2000/svg">
<path d="M87.5079 23C86.8746 21.8333 85.9579 20.95 84.7579 20.35C83.5912 19.7167 82.2079 19.4 80.6079 19.4C77.8412 19.4 75.6246 20.3167 73.9579 22.15C72.2912 23.95 71.4579 26.3667 71.4579 29.4C71.4579 32.6333 72.3246 35.1667 74.0579 37C75.8246 38.8 78.2412 39.7 81.3079 39.7C83.4079 39.7 85.1746 39.1667 86.6079 38.1C88.0746 37.0333 89.1412 35.5 89.8079 33.5H78.9579V27.2H97.5579V35.15C96.9246 37.2833 95.8412 39.2667 94.3079 41.1C92.8079 42.9333 90.8912 44.4167 88.5579 45.55C86.2246 46.6833 83.5912 47.25 80.6579 47.25C77.1912 47.25 74.0912 46.5 71.3579 45C68.6579 43.4667 66.5412 41.35 65.0079 38.65C63.5079 35.95 62.7579 32.8667 62.7579 29.4C62.7579 25.9333 63.5079 22.85 65.0079 20.15C66.5412 17.4167 68.6579 15.3 71.3579 13.8C74.0579 12.2667 77.1412 11.5 80.6079 11.5C84.8079 11.5 88.3412 12.5167 91.2079 14.55C94.1079 16.5833 96.0246 19.4 96.9579 23H87.5079ZM110.844 23.75C111.844 22.2167 113.094 21.0167 114.594 20.15C116.094 19.25 117.761 18.8 119.594 18.8V27.85H117.244C115.111 27.85 113.511 28.3167 112.444 29.25C111.377 30.15 110.844 31.75 110.844 34.05V47H102.294V19.1H110.844V23.75ZM127.981 16.2C126.481 16.2 125.247 15.7667 124.281 14.9C123.347 14 122.881 12.9 122.881 11.6C122.881 10.2667 123.347 9.16666 124.281 8.3C125.247 7.4 126.481 6.95 127.981 6.95C129.447 6.95 130.647 7.4 131.581 8.3C132.547 9.16666 133.031 10.2667 133.031 11.6C133.031 12.9 132.547 14 131.581 14.9C130.647 15.7667 129.447 16.2 127.981 16.2ZM132.231 19.1V47H123.681V19.1H132.231ZM152.427 26.2H147.827V47H139.277V26.2H136.177V19.1H139.277V18.3C139.277 14.8667 140.26 12.2667 142.227 10.5C144.193 8.7 147.077 7.8 150.877 7.8C151.51 7.8 151.977 7.81666 152.277 7.85V15.1C150.643 15 149.493 15.2333 148.827 15.8C148.16 16.3667 147.827 17.3833 147.827 18.85V19.1H152.427V26.2ZM182.744 32.6C182.744 33.4 182.694 34.2333 182.594 35.1H163.244C163.378 36.8333 163.928 38.1667 164.894 39.1C165.894 40 167.111 40.45 168.544 40.45C170.678 40.45 172.161 39.55 172.994 37.75H182.094C181.628 39.5833 180.778 41.2333 179.544 42.7C178.344 44.1667 176.828 45.3167 174.994 46.15C173.161 46.9833 171.111 47.4 168.844 47.4C166.111 47.4 163.678 46.8167 161.544 45.65C159.411 44.4833 157.744 42.8167 156.544 40.65C155.344 38.4833 154.744 35.95 154.744 33.05C154.744 30.15 155.328 27.6167 156.494 25.45C157.694 23.2833 159.361 21.6167 161.494 20.45C163.628 19.2833 166.078 18.7 168.844 18.7C171.544 18.7 173.944 19.2667 176.044 20.4C178.144 21.5333 179.778 23.15 180.944 25.25C182.144 27.35 182.744 29.8 182.744 32.6ZM173.994 30.35C173.994 28.8833 173.494 27.7167 172.494 26.85C171.494 25.9833 170.244 25.55 168.744 25.55C167.311 25.55 166.094 25.9667 165.094 26.8C164.128 27.6333 163.528 28.8167 163.294 30.35H173.994ZM204.255 18.8C207.521 18.8 210.121 19.8667 212.055 22C214.021 24.1 215.005 27 215.005 30.7V47H206.505V31.85C206.505 29.9833 206.021 28.5333 205.055 27.5C204.088 26.4667 202.788 25.95 201.155 25.95C199.521 25.95 198.221 26.4667 197.255 27.5C196.288 28.5333 195.805 29.9833 195.805 31.85V47H187.255V19.1H195.805V22.8C196.671 21.5667 197.838 20.6 199.305 19.9C200.771 19.1667 202.421 18.8 204.255 18.8ZM225.246 16.2C223.746 16.2 222.513 15.7667 221.546 14.9C220.613 14 220.146 12.9 220.146 11.6C220.146 10.2667 220.613 9.16666 221.546 8.3C222.513 7.4 223.746 6.95 225.246 6.95C226.713 6.95 227.913 7.4 228.846 8.3C229.813 9.16666 230.296 10.2667 230.296 11.6C230.296 12.9 229.813 14 228.846 14.9C227.913 15.7667 226.713 16.2 225.246 16.2ZM229.496 19.1V47H220.946V19.1H229.496ZM252.192 47L246.842 39.25L242.342 47H233.092L242.292 32.75L232.842 19.1H242.442L247.792 26.8L252.292 19.1H261.542L252.192 33.15L261.792 47H252.192Z" fill="#0071DA"/>
<rect width="23.9421" height="23.9421" rx="4" transform="matrix(-0.000101971 0.988746 -0.881983 0.494459 54.3453 18.5717)" fill="url(#paint0_linear_34_275)"/>
<rect width="24.6419" height="24.6419" rx="4" transform="matrix(0.877035 0.480427 -0.877035 0.480427 32.4537 5)" fill="url(#paint1_linear_34_275)"/>
<rect width="23.9421" height="23.9421" rx="4" transform="matrix(-0.000101971 -0.988746 0.881982 0.494459 10.5595 42.2445)" fill="url(#paint2_linear_34_275)"/>
<defs>
<linearGradient id="paint0_linear_34_275" x1="11.9711" y1="0" x2="11.9711" y2="23.9421" gradientUnits="userSpaceOnUse">
<stop offset="1" stop-color="#003C74"/>
</linearGradient>
<linearGradient id="paint1_linear_34_275" x1="12.3209" y1="0" x2="12.3209" y2="24.6419" gradientUnits="userSpaceOnUse">
<stop stop-color="#0071DA"/>
</linearGradient>
<linearGradient id="paint2_linear_34_275" x1="23.9421" y1="0" x2="-1.90735e-06" y2="23.9421" gradientUnits="userSpaceOnUse">
<stop offset="0.227486" stop-color="#0071DA"/>
<stop offset="1" stop-color="#003C74"/>
</linearGradient>
</defs>
</svg>
