<svg width="201" height="147" viewBox="0 0 201 147" fill="none" xmlns="http://www.w3.org/2000/svg">
<path d="M26.4 122C25.7667 120.833 24.85 119.95 23.65 119.35C22.4833 118.717 21.1 118.4 19.5 118.4C16.7333 118.4 14.5167 119.317 12.85 121.15C11.1833 122.95 10.35 125.367 10.35 128.4C10.35 131.633 11.2167 134.167 12.95 136C14.7167 137.8 17.1333 138.7 20.2 138.7C22.3 138.7 24.0667 138.167 25.5 137.1C26.9667 136.033 28.0333 134.5 28.7 132.5H17.85V126.2H36.45V134.15C35.8167 136.283 34.7333 138.267 33.2 140.1C31.7 141.933 29.7833 143.417 27.45 144.55C25.1167 145.683 22.4833 146.25 19.55 146.25C16.0833 146.25 12.9833 145.5 10.25 144C7.55 142.467 5.43333 140.35 3.9 137.65C2.4 134.95 1.65 131.867 1.65 128.4C1.65 124.933 2.4 121.85 3.9 119.15C5.43333 116.417 7.55 114.3 10.25 112.8C12.95 111.267 16.0333 110.5 19.5 110.5C23.7 110.5 27.2333 111.517 30.1 113.55C33 115.583 34.9167 118.4 35.85 122H26.4ZM49.7359 122.75C50.7359 121.217 51.9859 120.017 53.4859 119.15C54.9859 118.25 56.6526 117.8 58.4859 117.8V126.85H56.1359C54.0026 126.85 52.4026 127.317 51.3359 128.25C50.2693 129.15 49.7359 130.75 49.7359 133.05V146H41.1859V118.1H49.7359V122.75ZM66.8727 115.2C65.3727 115.2 64.1393 114.767 63.1727 113.9C62.2393 113 61.7727 111.9 61.7727 110.6C61.7727 109.267 62.2393 108.167 63.1727 107.3C64.1393 106.4 65.3727 105.95 66.8727 105.95C68.3393 105.95 69.5393 106.4 70.4727 107.3C71.4393 108.167 71.9227 109.267 71.9227 110.6C71.9227 111.9 71.4393 113 70.4727 113.9C69.5393 114.767 68.3393 115.2 66.8727 115.2ZM71.1227 118.1V146H62.5727V118.1H71.1227ZM91.3188 125.2H86.7188V146H78.1688V125.2H75.0688V118.1H78.1688V117.3C78.1688 113.867 79.1521 111.267 81.1188 109.5C83.0854 107.7 85.9688 106.8 89.7688 106.8C90.4021 106.8 90.8688 106.817 91.1688 106.85V114.1C89.5354 114 88.3854 114.233 87.7188 114.8C87.0521 115.367 86.7188 116.383 86.7188 117.85V118.1H91.3188V125.2ZM121.636 131.6C121.636 132.4 121.586 133.233 121.486 134.1H102.136C102.27 135.833 102.82 137.167 103.786 138.1C104.786 139 106.003 139.45 107.436 139.45C109.57 139.45 111.053 138.55 111.886 136.75H120.986C120.52 138.583 119.67 140.233 118.436 141.7C117.236 143.167 115.72 144.317 113.886 145.15C112.053 145.983 110.003 146.4 107.736 146.4C105.003 146.4 102.57 145.817 100.436 144.65C98.303 143.483 96.6363 141.817 95.4363 139.65C94.2363 137.483 93.6363 134.95 93.6363 132.05C93.6363 129.15 94.2197 126.617 95.3863 124.45C96.5863 122.283 98.253 120.617 100.386 119.45C102.52 118.283 104.97 117.7 107.736 117.7C110.436 117.7 112.836 118.267 114.936 119.4C117.036 120.533 118.67 122.15 119.836 124.25C121.036 126.35 121.636 128.8 121.636 131.6ZM112.886 129.35C112.886 127.883 112.386 126.717 111.386 125.85C110.386 124.983 109.136 124.55 107.636 124.55C106.203 124.55 104.986 124.967 103.986 125.8C103.02 126.633 102.42 127.817 102.186 129.35H112.886ZM143.147 117.8C146.414 117.8 149.014 118.867 150.947 121C152.914 123.1 153.897 126 153.897 129.7V146H145.397V130.85C145.397 128.983 144.914 127.533 143.947 126.5C142.98 125.467 141.68 124.95 140.047 124.95C138.414 124.95 137.114 125.467 136.147 126.5C135.18 127.533 134.697 128.983 134.697 130.85V146H126.147V118.1H134.697V121.8C135.564 120.567 136.73 119.6 138.197 118.9C139.664 118.167 141.314 117.8 143.147 117.8ZM164.138 115.2C162.638 115.2 161.405 114.767 160.438 113.9C159.505 113 159.038 111.9 159.038 110.6C159.038 109.267 159.505 108.167 160.438 107.3C161.405 106.4 162.638 105.95 164.138 105.95C165.605 105.95 166.805 106.4 167.738 107.3C168.705 108.167 169.188 109.267 169.188 110.6C169.188 111.9 168.705 113 167.738 113.9C166.805 114.767 165.605 115.2 164.138 115.2ZM168.388 118.1V146H159.838V118.1H168.388ZM191.084 146L185.734 138.25L181.234 146H171.984L181.184 131.75L171.734 118.1H181.334L186.684 125.8L191.184 118.1H200.434L191.084 132.15L200.684 146H191.084Z" fill="#0071DA"/>
<rect width="47.8836" height="47.8836" rx="4" transform="matrix(-0.000102012 0.988759 -0.881964 0.494465 144.687 27.1433)" fill="url(#paint0_linear_34_275)"/>
<rect width="49.2824" height="49.2824" rx="4" transform="matrix(0.877027 0.48044 -0.877027 0.48044 100.905 0)" fill="url(#paint1_linear_34_275)"/>
<rect width="47.8836" height="47.8836" rx="4" transform="matrix(-0.000102012 -0.988759 0.881963 0.494465 57.1183 74.489)" fill="url(#paint2_linear_34_275)"/>
<defs>
<linearGradient id="paint0_linear_34_275" x1="23.9418" y1="0" x2="23.9418" y2="47.8836" gradientUnits="userSpaceOnUse">
<stop offset="1" stop-color="#003C74"/>
</linearGradient>
<linearGradient id="paint1_linear_34_275" x1="24.6412" y1="0" x2="24.6412" y2="49.2824" gradientUnits="userSpaceOnUse">
<stop stop-color="#0071DA"/>
</linearGradient>
<linearGradient id="paint2_linear_34_275" x1="47.8836" y1="0" x2="-3.8147e-06" y2="47.8836" gradientUnits="userSpaceOnUse">
<stop offset="0.227486" stop-color="#0071DA"/>
<stop offset="1" stop-color="#003C74"/>
</linearGradient>
</defs>
</svg>
